<?xml version="1.0" encoding="utf-8"?>
<!-- Generator: Adobe Illustrator 16.0.0, SVG Export Plug-In . SVG Version: 6.00 Build 0)  -->
<!DOCTYPE svg PUBLIC "-//W3C//DTD SVG 1.1//EN" "http://www.w3.org/Graphics/SVG/1.1/DTD/svg11.dtd">
<svg version="1.1" id="Layer_1" xmlns="http://www.w3.org/2000/svg" xmlns:xlink="http://www.w3.org/1999/xlink" x="0px" y="0px"
	 width="595.28px" height="39.819px" viewBox="0 0 595.28 39.819" enable-background="new 0 0 595.28 39.819" xml:space="preserve">
<g id="Facebook_6_">
	<path fill="#44629C" d="M297.527,34.963c-8.243,0-14.935-6.691-14.935-14.934c0-8.242,6.692-14.935,14.935-14.935
		s14.934,6.692,14.934,14.935C312.461,28.272,305.77,34.963,297.527,34.963z M297.527,6.229c-7.6,0-13.8,6.2-13.8,13.8
		c0,7.6,6.201,13.801,13.8,13.801c7.6,0,13.8-6.201,13.8-13.801C311.327,12.43,305.127,6.229,297.527,6.229z"/>
	<path id="Facebook_1_" fill="#44629C" d="M304.37,25.928c0,0.416-0.341,0.756-0.757,0.756h-3.553v-5.37h1.814l0.265-2.079h-2.079
		v-1.323c0-0.605,0.15-1.021,1.02-1.021h1.098v-1.891c-0.189-0.038-0.832-0.076-1.627-0.076c-1.588,0-2.684,0.983-2.684,2.761v1.55
		h-1.815v2.079h1.815v5.37h-6.655c-0.416,0-0.756-0.34-0.756-0.756V13.563c0-0.415,0.34-0.756,0.756-0.756h12.364
		c0.416,0,0.756,0.341,0.756,0.756v12.365H304.37z"/>
</g>
</svg>
