<?xml version="1.0" encoding="utf-8"?>
<!-- Generator: Adobe Illustrator 16.0.0, SVG Export Plug-In . SVG Version: 6.00 Build 0)  -->
<!DOCTYPE svg PUBLIC "-//W3C//DTD SVG 1.1//EN" "http://www.w3.org/Graphics/SVG/1.1/DTD/svg11.dtd">
<svg version="1.1" id="Layer_1" xmlns="http://www.w3.org/2000/svg" xmlns:xlink="http://www.w3.org/1999/xlink" x="0px" y="0px"
	 width="256px" height="256px" viewBox="0 0 256 256" enable-background="new 0 0 256 256" xml:space="preserve">
<g id="Instagram_7_">
	<path id="Instagram_1_" fill="#2B5C84" d="M176.602,68.373H86.19c-7.775,0-14.262,6.16-14.262,13.936v90.738
		c0,7.775,6.487,13.936,14.262,13.936h90.412c7.788,0,14.266-6.16,14.266-13.936V82.309C190.55,74.533,184.39,68.373,176.602,68.373
		z M157.166,86.846c0-1.942,1.607-3.565,3.565-3.565h11.016c1.941,0,3.565,1.624,3.565,3.565v11.023
		c0,1.942-1.624,3.557-3.565,3.557h-11.016c-1.958,0-3.565-1.615-3.565-3.557V86.846z M131.236,104.991
		c12.639,0,23.001,10.052,23.001,22.683c0,12.639-10.362,22.69-23.001,22.69c-12.638,0-22.682-10.052-22.682-22.69
		C108.554,115.361,118.598,104.991,131.236,104.991z M179.519,172.076c0,1.941-1.611,3.565-3.57,3.565H86.843
		c-1.941,0-3.565-1.624-3.565-3.565v-55.744h14.907c-1.95,2.921-2.595,8.102-2.595,11.341c0,19.77,16.204,35.974,36.3,35.974
		c20.088,0,36.291-16.204,36.291-35.974c0-3.239-0.334-8.42-2.912-11.341h14.902v55.744H179.519z"/>
	<path fill="#2B5C84" d="M127.989,256C57.348,256-0.002,198.642-0.002,128S57.348,0,127.989,0c70.646,0,128.013,57.358,128.013,128
		S198.635,256,127.989,256z M127.989,9.726C62.855,9.726,9.715,62.866,9.715,128s53.14,118.283,118.274,118.283
		c65.139,0,118.287-53.149,118.287-118.283S193.128,9.726,127.989,9.726z"/>
</g>
</svg>
