<?xml version="1.0" encoding="utf-8"?>
<!-- Generator: Adobe Illustrator 16.0.0, SVG Export Plug-In . SVG Version: 6.00 Build 0)  -->
<!DOCTYPE svg PUBLIC "-//W3C//DTD SVG 1.1//EN" "http://www.w3.org/Graphics/SVG/1.1/DTD/svg11.dtd">
<svg version="1.1" id="Layer_1" xmlns="http://www.w3.org/2000/svg" xmlns:xlink="http://www.w3.org/1999/xlink" x="0px" y="0px"
	 width="595.28px" height="419.53px" viewBox="0 0 595.28 419.53" enable-background="new 0 0 595.28 419.53" xml:space="preserve">
<g id="Instagram_7_">
	<path id="Instagram_1_" fill="#2B5C84" d="M303.717,203.613h-10.549c-0.907,0-1.664,0.719-1.664,1.626v10.587
		c0,0.907,0.757,1.626,1.664,1.626h10.549c0.908,0,1.664-0.719,1.664-1.626v-10.587
		C305.344,204.332,304.625,203.613,303.717,203.613z M301.449,205.769c0-0.227,0.188-0.416,0.416-0.416h1.285
		c0.227,0,0.416,0.189,0.416,0.416v1.286c0,0.227-0.189,0.415-0.416,0.415h-1.285c-0.229,0-0.416-0.188-0.416-0.415V205.769z
		 M298.423,207.886c1.475,0,2.684,1.173,2.684,2.646c0,1.475-1.209,2.647-2.684,2.647c-1.475,0-2.646-1.173-2.646-2.647
		C295.777,209.096,296.949,207.886,298.423,207.886z M304.057,215.713c0,0.227-0.188,0.416-0.416,0.416h-10.397
		c-0.227,0-0.416-0.189-0.416-0.416v-6.504h1.739c-0.228,0.341-0.303,0.945-0.303,1.323c0,2.307,1.891,4.197,4.235,4.197
		c2.344,0,4.235-1.891,4.235-4.197c0-0.378-0.039-0.982-0.34-1.323h1.738v6.504H304.057z"/>
	<path fill="#2B5C84" d="M298.044,225.505c-8.242,0-14.934-6.692-14.934-14.935s6.691-14.935,14.934-14.935
		c8.243,0,14.936,6.692,14.936,14.935S306.287,225.505,298.044,225.505z M298.044,196.771c-7.6,0-13.8,6.2-13.8,13.8
		s6.2,13.801,13.8,13.801c7.6,0,13.801-6.201,13.801-13.801S305.645,196.771,298.044,196.771z"/>
</g>
</svg>
