<?xml version="1.0" encoding="utf-8"?>
<!-- Generator: Adobe Illustrator 16.0.0, SVG Export Plug-In . SVG Version: 6.00 Build 0)  -->
<!DOCTYPE svg PUBLIC "-//W3C//DTD SVG 1.1//EN" "http://www.w3.org/Graphics/SVG/1.1/DTD/svg11.dtd">
<svg version="1.1" id="Layer_1" xmlns="http://www.w3.org/2000/svg" xmlns:xlink="http://www.w3.org/1999/xlink" x="0px" y="0px"
	 width="256px" height="256px" viewBox="0 0 256 256" enable-background="new 0 0 256 256" xml:space="preserve">
<g id="Twitter_7_">
	<path id="Twitter_1_" fill="#2FA8DF" d="M184.054,78.644c-4.854,2.917-10.044,5.183-15.869,6.152
		c-4.536-4.856-11.015-8.091-18.146-8.091c-13.609,0-24.958,11.327-24.958,25.571c0,1.939,0.318,3.879,0.652,5.818
		c-20.744-0.97-38.89-11.327-51.21-26.532c-2.26,3.879-3.23,8.092-3.23,12.94c0,8.744,4.536,16.509,11.015,21.366
		c-4.219,0-7.784-1.296-11.35-3.235v0.318c0,12.296,8.437,22.653,20.096,24.919c-1.942,0.651-4.21,0.978-6.478,0.978
		c-1.624,0-3.239,0-4.545-0.326c3.248,10.031,12.32,17.479,23.335,17.797c-8.42,6.797-19.117,11.009-30.784,11.009
		c-1.942,0-3.884,0-5.826-0.325c11.015,7.122,23.971,11.326,38.233,11.326c45.685,0,70.962-38.837,70.962-72.5
		c0-0.969,0-2.265,0-3.234c4.871-3.561,9.072-8.092,12.32-13.266c-4.537,1.939-9.392,3.561-14.263,3.887
		C178.229,89.327,182.112,84.47,184.054,78.644z"/>
	<path fill="#2FA8DF" d="M127.993,255.676C57.349,255.676,0,198.39,0,127.838S57.349,0,127.993,0C198.634,0,256,57.286,256,127.838
		S198.634,255.676,127.993,255.676z M127.993,9.713C62.857,9.713,9.717,62.787,9.717,127.838
		c0,65.052,53.14,118.132,118.276,118.132c65.133,0,118.281-53.08,118.281-118.132C246.274,62.787,193.126,9.713,127.993,9.713z"/>
</g>
</svg>
