<?xml version="1.0" encoding="utf-8"?>
<!-- Generator: Adobe Illustrator 16.0.0, SVG Export Plug-In . SVG Version: 6.00 Build 0)  -->
<!DOCTYPE svg PUBLIC "-//W3C//DTD SVG 1.1//EN" "http://www.w3.org/Graphics/SVG/1.1/DTD/svg11.dtd">
<svg version="1.1" id="Layer_1" xmlns="http://www.w3.org/2000/svg" xmlns:xlink="http://www.w3.org/1999/xlink" x="0px" y="0px"
	 width="256px" height="256px" viewBox="0 0 256 256" enable-background="new 0 0 256 256" xml:space="preserve">
<g id="Facebook_6_">
	<path fill="#44629C" d="M127.689,255.933c-70.502,0-127.74-57.242-127.74-127.74S57.187,0.452,127.689,0.452
		s127.736,57.242,127.736,127.74S198.191,255.933,127.689,255.933z M127.689,10.158C62.687,10.158,9.65,63.19,9.65,128.192
		s53.037,118.043,118.039,118.043c65.006,0,118.039-53.041,118.039-118.043S192.695,10.158,127.689,10.158z"/>
	<path id="Facebook_1_" fill="#44629C" d="M186.222,178.644c0,3.559-2.915,6.465-6.474,6.465H149.36v-45.924h15.52l2.264-17.783
		H149.36v-11.318c0-5.179,1.286-8.729,8.721-8.729h9.389V85.184c-1.621-0.326-7.117-0.651-13.916-0.651
		c-13.582,0-22.954,8.411-22.954,23.613v13.256h-15.523v17.783H130.6v45.924H73.68c-3.555,0-6.465-2.906-6.465-6.465V72.888
		c0-3.55,2.911-6.465,6.465-6.465h105.751c3.559,0,6.465,2.915,6.465,6.465v105.755H186.222z"/>
</g>
</svg>
