<?xml version="1.0" encoding="utf-8"?>
<!-- Generator: Adobe Illustrator 16.0.0, SVG Export Plug-In . SVG Version: 6.00 Build 0)  -->
<!DOCTYPE svg PUBLIC "-//W3C//DTD SVG 1.1//EN" "http://www.w3.org/Graphics/SVG/1.1/DTD/svg11.dtd">
<svg version="1.1" id="Layer_1" xmlns="http://www.w3.org/2000/svg" xmlns:xlink="http://www.w3.org/1999/xlink" x="0px" y="0px"
	 width="595.28px" height="419.53px" viewBox="0 0 595.28 419.53" enable-background="new 0 0 595.28 419.53" xml:space="preserve">
<g id="Twitter_7_">
	<path id="Twitter_1_" fill="#2FA8DF" d="M304.568,204.823c-0.566,0.341-1.172,0.605-1.852,0.719
		c-0.529-0.567-1.285-0.945-2.117-0.945c-1.588,0-2.913,1.323-2.913,2.987c0,0.227,0.038,0.453,0.076,0.68
		c-2.42-0.113-4.537-1.323-5.975-3.1c-0.264,0.453-0.377,0.945-0.377,1.512c0,1.021,0.529,1.929,1.285,2.496
		c-0.492,0-0.908-0.151-1.324-0.378v0.037c0,1.437,0.984,2.646,2.345,2.911c-0.227,0.076-0.491,0.114-0.756,0.114
		c-0.189,0-0.378,0-0.53-0.038c0.379,1.172,1.438,2.042,2.723,2.079c-0.982,0.794-2.23,1.286-3.592,1.286
		c-0.227,0-0.453,0-0.68-0.038c1.285,0.832,2.797,1.323,4.461,1.323c5.331,0,8.28-4.537,8.28-8.47c0-0.113,0-0.265,0-0.378
		c0.568-0.416,1.059-0.945,1.438-1.55c-0.529,0.227-1.096,0.416-1.664,0.454C303.889,206.071,304.342,205.504,304.568,204.823z"/>
	<path fill="#2FA8DF" d="M298.027,225.505c-8.242,0-14.934-6.692-14.934-14.935s6.691-14.935,14.934-14.935
		c8.243,0,14.936,6.692,14.936,14.935S306.27,225.505,298.027,225.505z M298.027,196.771c-7.6,0-13.8,6.2-13.8,13.8
		s6.2,13.801,13.8,13.801c7.6,0,13.801-6.201,13.801-13.801S305.627,196.771,298.027,196.771z"/>
</g>
</svg>
